<svg width="32" height="32" viewBox="0 0 32 32">
<path d="M8 1H24C27.866 1 31 4.13401 31 8V24C31 27.866 27.866 31 24 31H8C4.13401 31 1 27.866 1 24V8C1 4.13401 4.13401 1 8 1Z" stroke-opacity="0.17"/>
<path fill-rule="evenodd" clip-rule="evenodd" d="M11.5273 13.5286C11.7876 13.2683 12.2098 13.2683 12.4701 13.5286L15.9987 17.0572L19.5273 13.5286C19.7876 13.2683 20.2098 13.2683 20.4701 13.5286C20.7305 13.789 20.7305 14.2111 20.4701 14.4714L16.4701 18.4714C16.2098 18.7318 15.7876 18.7318 15.5273 18.4714L11.5273 14.4714C11.2669 14.2111 11.2669 13.789 11.5273 13.5286Z"/>
</svg>
