<svg width="21" height="19" viewBox="0 0 21 19">
<path fill-rule="evenodd" clip-rule="evenodd" d="M7.41062 3.01109C6.86153 2.95252 6.30626 3.00827 5.77977 3.17484C5.25329 3.3414 4.767 3.61518 4.35151 3.97892C3.93603 4.34265 3.60037 4.78848 3.36565 5.28832C3.13094 5.78816 3.00226 6.33118 2.98772 6.8832C2.97317 7.43521 3.07309 7.98426 3.28116 8.49576C3.48924 9.00726 3.80097 9.47014 4.19673 9.85525L4.20304 9.8614L4.20301 9.86142L10.9993 16.5925L17.7956 9.86142C17.8164 9.8409 17.8377 9.82148 17.8597 9.80314C18.2235 9.43007 18.511 8.98932 18.7059 8.50551C18.9116 7.99491 19.0097 7.44734 18.994 6.89708C18.9784 6.34682 18.8493 5.80571 18.6149 5.30762C18.3805 4.80954 18.0459 4.36519 17.6318 4.0024C17.2178 3.63961 16.7334 3.36618 16.2088 3.19922C15.6843 3.03227 15.1309 2.97538 14.5833 3.03213C14.0358 3.08887 13.5058 3.25802 13.0267 3.52899C12.5475 3.79997 12.1294 4.16693 11.7986 4.60691C11.6091 4.85892 11.3118 5.00681 10.9965 5.00593C10.6812 5.00505 10.3848 4.85552 10.1967 4.60245C9.86732 4.15925 9.44973 3.78906 8.97023 3.51518C8.49073 3.2413 7.95971 3.06967 7.41062 3.01109ZM19.134 11.3508L11.703 18.7104C11.3133 19.0964 10.6854 19.0964 10.2956 18.7104L2.79862 11.2854C2.20655 10.7084 1.74012 10.0152 1.42858 9.24938C1.11647 8.48212 0.966598 7.65855 0.988409 6.83053C1.01022 6.00251 1.20324 5.18798 1.55531 4.43822C1.90739 3.68846 2.41089 3.01972 3.03411 2.47411C3.65733 1.9285 4.38677 1.51784 5.1765 1.26799C5.96623 1.01814 6.79913 0.934515 7.62277 1.02238C8.4464 1.11024 9.24292 1.36768 9.96217 1.7785C10.3362 1.99215 10.6852 2.24487 11.0034 2.53174C11.3214 2.24834 11.6695 1.99885 12.0422 1.78808C12.7609 1.38162 13.5559 1.12789 14.3772 1.04278C15.1985 0.957664 16.0286 1.04299 16.8154 1.29343C17.6022 1.54386 18.3289 1.954 18.9499 2.49819C19.571 3.04238 20.073 3.7089 20.4246 4.45603C20.7762 5.20316 20.9697 6.01482 20.9932 6.84021C21.0167 7.66559 20.8696 8.48695 20.561 9.25286C20.2525 10.0188 19.7891 10.7127 19.2001 11.2914C19.1787 11.3123 19.1567 11.3321 19.134 11.3508Z"/>
</svg>
